<mxfile host="app.diagrams.net" modified="2024-06-03T14:42:48.022Z" agent="Mozilla/5.0 (Windows NT 10.0; Win64; x64) AppleWebKit/537.36 (KHTML, like Gecko) Chrome/121.0.0.0 Safari/537.36" etag="3mZq38KOLv7qjWbh_fs3" version="24.4.13" type="device" pages="4">
  <diagram name="Página-1" id="s15k9l_Zhzr2qFT0Oh6H">
    <mxGraphModel dx="2739" dy="1043" grid="1" gridSize="10" guides="1" tooltips="1" connect="1" arrows="1" fold="1" page="1" pageScale="1" pageWidth="827" pageHeight="1169" math="0" shadow="0">
      <root>
        <mxCell id="0" />
        <mxCell id="1" parent="0" />
        <mxCell id="M37_4Lfnf5Lh7sAg5vJK-2" value="" style="rounded=1;whiteSpace=wrap;html=1;" parent="1" vertex="1">
          <mxGeometry x="140" y="280" width="270" height="530" as="geometry" />
        </mxCell>
        <mxCell id="M37_4Lfnf5Lh7sAg5vJK-3" value="Cadastro Cliente" style="text;strokeColor=none;fillColor=none;html=1;fontSize=24;fontStyle=1;verticalAlign=middle;align=center;" parent="1" vertex="1">
          <mxGeometry x="225" y="340" width="100" height="40" as="geometry" />
        </mxCell>
        <mxCell id="M37_4Lfnf5Lh7sAg5vJK-5" value="" style="rounded=1;whiteSpace=wrap;html=1;" parent="1" vertex="1">
          <mxGeometry x="165" y="430" width="220" height="30" as="geometry" />
        </mxCell>
        <mxCell id="M37_4Lfnf5Lh7sAg5vJK-6" value="" style="rounded=1;whiteSpace=wrap;html=1;" parent="1" vertex="1">
          <mxGeometry x="165" y="510" width="220" height="30" as="geometry" />
        </mxCell>
        <mxCell id="M37_4Lfnf5Lh7sAg5vJK-7" value="" style="rounded=1;whiteSpace=wrap;html=1;" parent="1" vertex="1">
          <mxGeometry x="165" y="590" width="220" height="30" as="geometry" />
        </mxCell>
        <mxCell id="M37_4Lfnf5Lh7sAg5vJK-8" value="NOME:" style="text;html=1;align=center;verticalAlign=middle;whiteSpace=wrap;rounded=0;" parent="1" vertex="1">
          <mxGeometry x="160" y="400" width="60" height="30" as="geometry" />
        </mxCell>
        <mxCell id="M37_4Lfnf5Lh7sAg5vJK-9" value="TELEFONE:" style="text;html=1;align=center;verticalAlign=middle;whiteSpace=wrap;rounded=0;" parent="1" vertex="1">
          <mxGeometry x="165" y="480" width="60" height="30" as="geometry" />
        </mxCell>
        <mxCell id="M37_4Lfnf5Lh7sAg5vJK-10" value="ENDEREÇO:" style="text;html=1;align=center;verticalAlign=middle;whiteSpace=wrap;rounded=0;" parent="1" vertex="1">
          <mxGeometry x="165" y="560" width="75" height="30" as="geometry" />
        </mxCell>
        <mxCell id="M37_4Lfnf5Lh7sAg5vJK-12" value="FINALIZAR CADASTRO" style="rounded=1;whiteSpace=wrap;html=1;fillColor=#dae8fc;strokeColor=#6c8ebf;" parent="1" vertex="1">
          <mxGeometry x="205" y="680" width="140" height="40" as="geometry" />
        </mxCell>
        <mxCell id="M37_4Lfnf5Lh7sAg5vJK-20" value="" style="rounded=1;whiteSpace=wrap;html=1;" parent="1" vertex="1">
          <mxGeometry x="470" y="90" width="230" height="130" as="geometry" />
        </mxCell>
        <mxCell id="M37_4Lfnf5Lh7sAg5vJK-21" value="SIM" style="rounded=1;whiteSpace=wrap;html=1;" parent="1" vertex="1">
          <mxGeometry x="510" y="170" width="60" height="30" as="geometry" />
        </mxCell>
        <mxCell id="M37_4Lfnf5Lh7sAg5vJK-22" value="NÃO" style="rounded=1;whiteSpace=wrap;html=1;" parent="1" vertex="1">
          <mxGeometry x="600" y="170" width="60" height="30" as="geometry" />
        </mxCell>
        <mxCell id="M37_4Lfnf5Lh7sAg5vJK-23" value="EXCLUIR CLIENTE?" style="text;html=1;align=center;verticalAlign=middle;whiteSpace=wrap;rounded=0;" parent="1" vertex="1">
          <mxGeometry x="520" y="120" width="130" height="30" as="geometry" />
        </mxCell>
        <mxCell id="M37_4Lfnf5Lh7sAg5vJK-24" value="" style="image;html=1;image=img/lib/atlassian/Bitbucket_Logo.svg;" parent="1" vertex="1">
          <mxGeometry x="325" y="750" width="30" height="20" as="geometry" />
        </mxCell>
        <mxCell id="M37_4Lfnf5Lh7sAg5vJK-25" value="" style="image;html=1;image=img/lib/atlassian/Bamboo_Logo.svg;" parent="1" vertex="1">
          <mxGeometry x="360" y="750" width="30" height="20" as="geometry" />
        </mxCell>
        <mxCell id="M37_4Lfnf5Lh7sAg5vJK-27" value="" style="rounded=1;whiteSpace=wrap;html=1;" parent="1" vertex="1">
          <mxGeometry x="450" y="280" width="270" height="530" as="geometry" />
        </mxCell>
        <mxCell id="M37_4Lfnf5Lh7sAg5vJK-28" value="Atualizar Cadastro" style="text;strokeColor=none;fillColor=none;html=1;fontSize=24;fontStyle=1;verticalAlign=middle;align=center;" parent="1" vertex="1">
          <mxGeometry x="535" y="340" width="100" height="40" as="geometry" />
        </mxCell>
        <mxCell id="M37_4Lfnf5Lh7sAg5vJK-29" value="" style="rounded=1;whiteSpace=wrap;html=1;" parent="1" vertex="1">
          <mxGeometry x="475" y="430" width="220" height="30" as="geometry" />
        </mxCell>
        <mxCell id="M37_4Lfnf5Lh7sAg5vJK-30" value="" style="rounded=1;whiteSpace=wrap;html=1;" parent="1" vertex="1">
          <mxGeometry x="475" y="510" width="220" height="30" as="geometry" />
        </mxCell>
        <mxCell id="M37_4Lfnf5Lh7sAg5vJK-31" value="" style="rounded=1;whiteSpace=wrap;html=1;" parent="1" vertex="1">
          <mxGeometry x="475" y="590" width="220" height="30" as="geometry" />
        </mxCell>
        <mxCell id="M37_4Lfnf5Lh7sAg5vJK-32" value="NOME:" style="text;html=1;align=center;verticalAlign=middle;whiteSpace=wrap;rounded=0;" parent="1" vertex="1">
          <mxGeometry x="470" y="400" width="60" height="30" as="geometry" />
        </mxCell>
        <mxCell id="M37_4Lfnf5Lh7sAg5vJK-33" value="TELEFONE:" style="text;html=1;align=center;verticalAlign=middle;whiteSpace=wrap;rounded=0;" parent="1" vertex="1">
          <mxGeometry x="475" y="480" width="60" height="30" as="geometry" />
        </mxCell>
        <mxCell id="M37_4Lfnf5Lh7sAg5vJK-34" value="ENDEREÇO:" style="text;html=1;align=center;verticalAlign=middle;whiteSpace=wrap;rounded=0;" parent="1" vertex="1">
          <mxGeometry x="475" y="560" width="75" height="30" as="geometry" />
        </mxCell>
        <mxCell id="M37_4Lfnf5Lh7sAg5vJK-35" value="ATUALIZAR" style="rounded=1;whiteSpace=wrap;html=1;fillColor=#dae8fc;strokeColor=#6c8ebf;" parent="1" vertex="1">
          <mxGeometry x="515" y="680" width="140" height="40" as="geometry" />
        </mxCell>
        <mxCell id="kazX1QDIwVCv0MkKkd7T-1" value="&lt;span style=&quot;color: rgba(0, 0, 0, 0); font-family: monospace; font-size: 0px; text-align: start; text-wrap: nowrap;&quot;&gt;%3CmxGraphModel%3E%3Croot%3E%3CmxCell%20id%3D%220%22%2F%3E%3CmxCell%20id%3D%221%22%20parent%3D%220%22%2F%3E%3CmxCell%20id%3D%222%22%20value%3D%22%22%20style%3D%22image%3Bhtml%3D1%3Bimage%3Dimg%2Flib%2Fatlassian%2FBitbucket_Logo.svg%3B%22%20vertex%3D%221%22%20parent%3D%221%22%3E%3CmxGeometry%20x%3D%22350%22%20y%3D%22730%22%20width%3D%2230%22%20height%3D%2225%22%20as%3D%22geometry%22%2F%3E%3C%2FmxCell%3E%3CmxCell%20id%3D%223%22%20value%3D%22%22%20style%3D%22image%3Bhtml%3D1%3Bimage%3Dimg%2Flib%2Fatlassian%2FBamboo_Logo.svg%3Bdirection%3Deast%3B%22%20vertex%3D%221%22%20parent%3D%221%22%3E%3CmxGeometry%20x%3D%22390%22%20y%3D%22727.5%22%20width%3D%2230%22%20height%3D%2230%22%20as%3D%22geometry%22%2F%3E%3C%2FmxCell%3E%3C%2Froot%3E%3C%2FmxGraphModel%3E&lt;/span&gt;&lt;span style=&quot;color: rgba(0, 0, 0, 0); font-family: monospace; font-size: 0px; text-align: start; text-wrap: nowrap;&quot;&gt;%3CmxGraphModel%3E%3Croot%3E%3CmxCell%20id%3D%220%22%2F%3E%3CmxCell%20id%3D%221%22%20parent%3D%220%22%2F%3E%3CmxCell%20id%3D%222%22%20value%3D%22%22%20style%3D%22image%3Bhtml%3D1%3Bimage%3Dimg%2Flib%2Fatlassian%2FBitbucket_Logo.svg%3B%22%20vertex%3D%221%22%20parent%3D%221%22%3E%3CmxGeometry%20x%3D%22350%22%20y%3D%22730%22%20width%3D%2230%22%20height%3D%2225%22%20as%3D%22geometry%22%2F%3E%3C%2FmxCell%3E%3CmxCell%20id%3D%223%22%20value%3D%22%22%20style%3D%22image%3Bhtml%3D1%3Bimage%3Dimg%2Flib%2Fatlassian%2FBamboo_Logo.svg%3Bdirection%3Deast%3B%22%20vertex%3D%221%22%20parent%3D%221%22%3E%3CmxGeometry%20x%3D%22390%22%20y%3D%22727.5%22%20width%3D%2230%22%20height%3D%2230%22%20as%3D%22geometry%22%2F%3E%3C%2FmxCell%3E%3C%2Froot%3E%3C%2FmxGraphModel%3E&lt;/span&gt;&lt;span style=&quot;color: rgba(0, 0, 0, 0); font-family: monospace; font-size: 0px; text-align: start; text-wrap: nowrap;&quot;&gt;%3CmxGraphModel%3E%3Croot%3E%3CmxCell%20id%3D%220%22%2F%3E%3CmxCell%20id%3D%221%22%20parent%3D%220%22%2F%3E%3CmxCell%20id%3D%222%22%20value%3D%22%22%20style%3D%22image%3Bhtml%3D1%3Bimage%3Dimg%2Flib%2Fatlassian%2FBitbucket_Logo.svg%3B%22%20vertex%3D%221%22%20parent%3D%221%22%3E%3CmxGeometry%20x%3D%22350%22%20y%3D%22730%22%20width%3D%2230%22%20height%3D%2225%22%20as%3D%22geometry%22%2F%3E%3C%2FmxCell%3E%3CmxCell%20id%3D%223%22%20value%3D%22%22%20style%3D%22image%3Bhtml%3D1%3Bimage%3Dimg%2Flib%2Fatlassian%2FBamboo_Logo.svg%3Bdirection%3Deast%3B%22%20vertex%3D%221%22%20parent%3D%221%22%3E%3CmxGeometry%20x%3D%22390%22%20y%3D%22727.5%22%20width%3D%2230%22%20height%3D%2230%22%20as%3D%22geometry%22%2F%3E%3C%2FmxCell%3E%3C%2Froot%3E%3C%2FmxGraphModel%3E&lt;/span&gt;&lt;span style=&quot;color: rgba(0, 0, 0, 0); font-family: monospace; font-size: 0px; text-align: start; text-wrap: nowrap;&quot;&gt;%3CmxGraphModel%3E%3Croot%3E%3CmxCell%20id%3D%220%22%2F%3E%3CmxCell%20id%3D%221%22%20parent%3D%220%22%2F%3E%3CmxCell%20id%3D%222%22%20value%3D%22%22%20style%3D%22image%3Bhtml%3D1%3Bimage%3Dimg%2Flib%2Fatlassian%2FBitbucket_Logo.svg%3B%22%20vertex%3D%221%22%20parent%3D%221%22%3E%3CmxGeometry%20x%3D%22350%22%20y%3D%22730%22%20width%3D%2230%22%20height%3D%2225%22%20as%3D%22geometry%22%2F%3E%3C%2FmxCell%3E%3CmxCell%20id%3D%223%22%20value%3D%22%22%20style%3D%22image%3Bhtml%3D1%3Bimage%3Dimg%2Flib%2Fatlassian%2FBamboo_Logo.svg%3Bdirection%3Deast%3B%22%20vertex%3D%221%22%20parent%3D%221%22%3E%3CmxGeometry%20x%3D%22390%22%20y%3D%22727.5%22%20width%3D%2230%22%20height%3D%2230%22%20as%3D%22geometry%22%2F%3E%3C%2FmxCell%3E%3C%2Froot%3E%3C%2FmxGraphModel%3E&lt;/span&gt;&lt;span style=&quot;color: rgba(0, 0, 0, 0); font-family: monospace; font-size: 0px; text-align: start; text-wrap: nowrap;&quot;&gt;%3CmxGraphModel%3E%3Croot%3E%3CmxCell%20id%3D%220%22%2F%3E%3CmxCell%20id%3D%221%22%20parent%3D%220%22%2F%3E%3CmxCell%20id%3D%222%22%20value%3D%22%22%20style%3D%22image%3Bhtml%3D1%3Bimage%3Dimg%2Flib%2Fatlassian%2FBitbucket_Logo.svg%3B%22%20vertex%3D%221%22%20parent%3D%221%22%3E%3CmxGeometry%20x%3D%22350%22%20y%3D%22730%22%20width%3D%2230%22%20height%3D%2225%22%20as%3D%22geometry%22%2F%3E%3C%2FmxCell%3E%3CmxCell%20id%3D%223%22%20value%3D%22%22%20style%3D%22image%3Bhtml%3D1%3Bimage%3Dimg%2Flib%2Fatlassian%2FBamboo_Logo.svg%3Bdirection%3Deast%3B%22%20vertex%3D%221%22%20parent%3D%221%22%3E%3CmxGeometry%20x%3D%22390%22%20y%3D%22727.5%22%20width%3D%2230%22%20height%3D%2230%22%20as%3D%22geometry%22%2F%3E%3C%2FmxCell%3E%3C%2Froot%3E%3C%2FmxGraphModel%3E&lt;/span&gt;&lt;span style=&quot;color: rgba(0, 0, 0, 0); font-family: monospace; font-size: 0px; text-align: start; text-wrap: nowrap;&quot;&gt;%3CmxGraphModel%3E%3Croot%3E%3CmxCell%20id%3D%220%22%2F%3E%3CmxCell%20id%3D%221%22%20parent%3D%220%22%2F%3E%3CmxCell%20id%3D%222%22%20value%3D%22%22%20style%3D%22image%3Bhtml%3D1%3Bimage%3Dimg%2Flib%2Fatlassian%2FBitbucket_Logo.svg%3B%22%20vertex%3D%221%22%20parent%3D%221%22%3E%3CmxGeometry%20x%3D%22350%22%20y%3D%22730%22%20width%3D%2230%22%20height%3D%2225%22%20as%3D%22geometry%22%2F%3E%3C%2FmxCell%3E%3CmxCell%20id%3D%223%22%20value%3D%22%22%20style%3D%22image%3Bhtml%3D1%3Bimage%3Dimg%2Flib%2Fatlassian%2FBamboo_Logo.svg%3Bdirection%3Deast%3B%22%20vertex%3D%221%22%20parent%3D%221%22%3E%3CmxGeometry%20x%3D%22390%22%20y%3D%22727.5%22%20width%3D%2230%22%20height%3D%2230%22%20as%3D%22geometry%22%2F%3E%3C%2FmxCell%3E%3C%2Froot%3E%3C%2FmxGraphModel%3E&lt;/span&gt;" style="rounded=1;whiteSpace=wrap;html=1;" parent="1" vertex="1">
          <mxGeometry x="770" y="280" width="270" height="530" as="geometry" />
        </mxCell>
        <mxCell id="kazX1QDIwVCv0MkKkd7T-2" value="Buscar Cliente" style="text;strokeColor=none;fillColor=none;html=1;fontSize=24;fontStyle=1;verticalAlign=middle;align=center;" parent="1" vertex="1">
          <mxGeometry x="855" y="340" width="100" height="40" as="geometry" />
        </mxCell>
        <mxCell id="kazX1QDIwVCv0MkKkd7T-3" value="" style="rounded=1;whiteSpace=wrap;html=1;" parent="1" vertex="1">
          <mxGeometry x="795" y="400" width="220" height="30" as="geometry" />
        </mxCell>
        <mxCell id="kazX1QDIwVCv0MkKkd7T-6" value="BUSCAR:" style="text;html=1;align=center;verticalAlign=middle;whiteSpace=wrap;rounded=0;" parent="1" vertex="1">
          <mxGeometry x="795" y="400" width="60" height="30" as="geometry" />
        </mxCell>
        <mxCell id="25LE6dbaFn81B8ubAGGL-1" value="" style="image;html=1;image=img/lib/atlassian/Bitbucket_Logo.svg;" vertex="1" parent="1">
          <mxGeometry x="985" y="405" width="20" height="20" as="geometry" />
        </mxCell>
        <mxCell id="SQ-aEje-uGo3sBci4YoU-2" value="" style="rounded=1;whiteSpace=wrap;html=1;" vertex="1" parent="1">
          <mxGeometry x="-140" y="450" width="230" height="130" as="geometry" />
        </mxCell>
        <mxCell id="SQ-aEje-uGo3sBci4YoU-5" value="CADASTRO FINALIZADO&lt;div&gt;COM SUCESSO&lt;/div&gt;" style="text;html=1;align=center;verticalAlign=middle;whiteSpace=wrap;rounded=0;" vertex="1" parent="1">
          <mxGeometry x="-100" y="480" width="150" height="70" as="geometry" />
        </mxCell>
        <mxCell id="SQ-aEje-uGo3sBci4YoU-6" value="" style="rounded=1;whiteSpace=wrap;html=1;" vertex="1" parent="1">
          <mxGeometry x="480" y="850" width="230" height="130" as="geometry" />
        </mxCell>
        <mxCell id="SQ-aEje-uGo3sBci4YoU-9" value="CADASTRO ATUALIZADO COM SUCESSO" style="text;html=1;align=center;verticalAlign=middle;whiteSpace=wrap;rounded=0;" vertex="1" parent="1">
          <mxGeometry x="530" y="885" width="130" height="60" as="geometry" />
        </mxCell>
        <mxCell id="SQ-aEje-uGo3sBci4YoU-10" value="BUSCA NÃO ENCONTRADA" style="rounded=1;whiteSpace=wrap;html=1;" vertex="1" parent="1">
          <mxGeometry x="1090" y="450" width="230" height="130" as="geometry" />
        </mxCell>
        <mxCell id="hU885zXfClzz_5IawSFI-3" value="" style="rounded=1;whiteSpace=wrap;html=1;" vertex="1" parent="1">
          <mxGeometry x="795" y="480" width="220" height="30" as="geometry" />
        </mxCell>
        <mxCell id="hU885zXfClzz_5IawSFI-4" value="" style="rounded=1;whiteSpace=wrap;html=1;" vertex="1" parent="1">
          <mxGeometry x="795" y="530" width="220" height="30" as="geometry" />
        </mxCell>
        <mxCell id="hU885zXfClzz_5IawSFI-5" value="" style="rounded=1;whiteSpace=wrap;html=1;" vertex="1" parent="1">
          <mxGeometry x="795" y="585" width="220" height="30" as="geometry" />
        </mxCell>
        <mxCell id="hU885zXfClzz_5IawSFI-6" value="" style="rounded=1;whiteSpace=wrap;html=1;" vertex="1" parent="1">
          <mxGeometry x="795" y="640" width="220" height="30" as="geometry" />
        </mxCell>
        <mxCell id="hU885zXfClzz_5IawSFI-7" value="" style="rounded=1;whiteSpace=wrap;html=1;" vertex="1" parent="1">
          <mxGeometry x="795" y="690" width="220" height="30" as="geometry" />
        </mxCell>
        <mxCell id="wBk-x7rJFVL2KyObpc7z-1" value="" style="image;html=1;image=img/lib/atlassian/Bitbucket_Logo.svg;" vertex="1" parent="1">
          <mxGeometry x="995" y="485" width="20" height="20" as="geometry" />
        </mxCell>
        <mxCell id="wBk-x7rJFVL2KyObpc7z-2" value="" style="image;html=1;image=img/lib/atlassian/Bitbucket_Logo.svg;" vertex="1" parent="1">
          <mxGeometry x="995" y="535" width="20" height="20" as="geometry" />
        </mxCell>
        <mxCell id="wBk-x7rJFVL2KyObpc7z-3" value="" style="image;html=1;image=img/lib/atlassian/Bitbucket_Logo.svg;" vertex="1" parent="1">
          <mxGeometry x="995" y="590" width="20" height="20" as="geometry" />
        </mxCell>
        <mxCell id="wBk-x7rJFVL2KyObpc7z-4" value="" style="image;html=1;image=img/lib/atlassian/Bitbucket_Logo.svg;" vertex="1" parent="1">
          <mxGeometry x="995" y="645" width="20" height="20" as="geometry" />
        </mxCell>
        <mxCell id="wBk-x7rJFVL2KyObpc7z-5" value="" style="image;html=1;image=img/lib/atlassian/Bitbucket_Logo.svg;" vertex="1" parent="1">
          <mxGeometry x="995" y="695" width="20" height="20" as="geometry" />
        </mxCell>
        <mxCell id="kdmCDpRf4ePI7tx16w1u-1" value="" style="image;html=1;image=img/lib/atlassian/Bamboo_Logo.svg;direction=east;" vertex="1" parent="1">
          <mxGeometry x="975" y="643.75" width="20" height="22.5" as="geometry" />
        </mxCell>
        <mxCell id="oWW36i8iL8bHDETCfAAh-1" value="+" style="rounded=1;whiteSpace=wrap;html=1;direction=south;" vertex="1" parent="1">
          <mxGeometry x="980" y="760" width="30" height="30" as="geometry" />
        </mxCell>
      </root>
    </mxGraphModel>
  </diagram>
  <diagram id="IeWmozsvaNmjU-cDPaeW" name="Página-2">
    <mxGraphModel dx="2739" dy="1043" grid="1" gridSize="10" guides="1" tooltips="1" connect="1" arrows="1" fold="1" page="1" pageScale="1" pageWidth="827" pageHeight="1169" math="0" shadow="0">
      <root>
        <mxCell id="0" />
        <mxCell id="1" parent="0" />
        <mxCell id="rznFFyfrfpz74ASjMZUM-1" value="" style="rounded=1;whiteSpace=wrap;html=1;" parent="1" vertex="1">
          <mxGeometry x="117.5" y="275" width="285" height="590" as="geometry" />
        </mxCell>
        <mxCell id="rznFFyfrfpz74ASjMZUM-2" value="Cadastro Pedido" style="text;strokeColor=none;fillColor=none;html=1;fontSize=24;fontStyle=1;verticalAlign=middle;align=center;" parent="1" vertex="1">
          <mxGeometry x="210" y="300" width="100" height="40" as="geometry" />
        </mxCell>
        <mxCell id="rznFFyfrfpz74ASjMZUM-3" value="" style="rounded=1;whiteSpace=wrap;html=1;" parent="1" vertex="1">
          <mxGeometry x="145" y="360" width="220" height="30" as="geometry" />
        </mxCell>
        <mxCell id="rznFFyfrfpz74ASjMZUM-4" value="" style="rounded=1;whiteSpace=wrap;html=1;" parent="1" vertex="1">
          <mxGeometry x="145" y="430" width="220" height="30" as="geometry" />
        </mxCell>
        <mxCell id="rznFFyfrfpz74ASjMZUM-5" value="" style="rounded=1;whiteSpace=wrap;html=1;" parent="1" vertex="1">
          <mxGeometry x="148.75" y="555" width="220" height="30" as="geometry" />
        </mxCell>
        <mxCell id="rznFFyfrfpz74ASjMZUM-6" value="NOME:" style="text;html=1;align=center;verticalAlign=middle;whiteSpace=wrap;rounded=0;" parent="1" vertex="1">
          <mxGeometry x="142.5" y="330" width="60" height="30" as="geometry" />
        </mxCell>
        <mxCell id="rznFFyfrfpz74ASjMZUM-7" value="QUANTIDADE:" style="text;html=1;align=center;verticalAlign=middle;whiteSpace=wrap;rounded=0;" parent="1" vertex="1">
          <mxGeometry x="145" y="400" width="80" height="30" as="geometry" />
        </mxCell>
        <mxCell id="rznFFyfrfpz74ASjMZUM-8" value="VALOR:" style="text;html=1;align=center;verticalAlign=middle;whiteSpace=wrap;rounded=0;" parent="1" vertex="1">
          <mxGeometry x="147.5" y="525" width="75" height="30" as="geometry" />
        </mxCell>
        <mxCell id="rznFFyfrfpz74ASjMZUM-9" value="FINALIZAR PEDIDO" style="rounded=1;whiteSpace=wrap;html=1;fillColor=#dae8fc;strokeColor=#6c8ebf;" parent="1" vertex="1">
          <mxGeometry x="148.75" y="780" width="140" height="40" as="geometry" />
        </mxCell>
        <mxCell id="rznFFyfrfpz74ASjMZUM-10" value="" style="image;html=1;image=img/lib/atlassian/Bitbucket_Logo.svg;" parent="1" vertex="1">
          <mxGeometry x="320" y="820" width="30" height="20" as="geometry" />
        </mxCell>
        <mxCell id="rznFFyfrfpz74ASjMZUM-11" value="" style="image;html=1;image=img/lib/atlassian/Bamboo_Logo.svg;" parent="1" vertex="1">
          <mxGeometry x="360" y="820" width="30" height="20" as="geometry" />
        </mxCell>
        <mxCell id="rznFFyfrfpz74ASjMZUM-12" value="" style="rounded=1;whiteSpace=wrap;html=1;" parent="1" vertex="1">
          <mxGeometry x="148.75" y="690" width="220" height="30" as="geometry" />
        </mxCell>
        <mxCell id="rznFFyfrfpz74ASjMZUM-13" value="" style="rounded=1;whiteSpace=wrap;html=1;" parent="1" vertex="1">
          <mxGeometry x="148.75" y="630" width="220" height="30" as="geometry" />
        </mxCell>
        <mxCell id="rznFFyfrfpz74ASjMZUM-14" value="DESCONTO:" style="text;html=1;align=center;verticalAlign=middle;whiteSpace=wrap;rounded=0;" parent="1" vertex="1">
          <mxGeometry x="151.25" y="597.5" width="70" height="25" as="geometry" />
        </mxCell>
        <mxCell id="rznFFyfrfpz74ASjMZUM-15" value="PRAZO:" style="text;html=1;align=center;verticalAlign=middle;whiteSpace=wrap;rounded=0;" parent="1" vertex="1">
          <mxGeometry x="142.5" y="660" width="75" height="30" as="geometry" />
        </mxCell>
        <mxCell id="rznFFyfrfpz74ASjMZUM-18" value="" style="rounded=1;whiteSpace=wrap;html=1;" parent="1" vertex="1">
          <mxGeometry x="277" y="740" width="116" height="30" as="geometry" />
        </mxCell>
        <mxCell id="rznFFyfrfpz74ASjMZUM-19" value="TOTAL:" style="text;html=1;align=center;verticalAlign=middle;whiteSpace=wrap;rounded=0;" parent="1" vertex="1">
          <mxGeometry x="218.75" y="740" width="60" height="30" as="geometry" />
        </mxCell>
        <mxCell id="rznFFyfrfpz74ASjMZUM-20" value="" style="rounded=1;whiteSpace=wrap;html=1;" parent="1" vertex="1">
          <mxGeometry x="460" y="270" width="285" height="590" as="geometry" />
        </mxCell>
        <mxCell id="rznFFyfrfpz74ASjMZUM-21" value="Atualizar Pedido" style="text;strokeColor=none;fillColor=none;html=1;fontSize=24;fontStyle=1;verticalAlign=middle;align=center;" parent="1" vertex="1">
          <mxGeometry x="552.5" y="310" width="100" height="40" as="geometry" />
        </mxCell>
        <mxCell id="rznFFyfrfpz74ASjMZUM-22" value="" style="rounded=1;whiteSpace=wrap;html=1;" parent="1" vertex="1">
          <mxGeometry x="492.5" y="380" width="220" height="30" as="geometry" />
        </mxCell>
        <mxCell id="rznFFyfrfpz74ASjMZUM-23" value="" style="rounded=1;whiteSpace=wrap;html=1;" parent="1" vertex="1">
          <mxGeometry x="492.5" y="450" width="220" height="30" as="geometry" />
        </mxCell>
        <mxCell id="rznFFyfrfpz74ASjMZUM-24" value="" style="rounded=1;whiteSpace=wrap;html=1;" parent="1" vertex="1">
          <mxGeometry x="492.5" y="520" width="220" height="30" as="geometry" />
        </mxCell>
        <mxCell id="rznFFyfrfpz74ASjMZUM-25" value="NOME:" style="text;html=1;align=center;verticalAlign=middle;whiteSpace=wrap;rounded=0;" parent="1" vertex="1">
          <mxGeometry x="492.5" y="350" width="60" height="30" as="geometry" />
        </mxCell>
        <mxCell id="rznFFyfrfpz74ASjMZUM-26" value="QUANTIDADE:" style="text;html=1;align=center;verticalAlign=middle;whiteSpace=wrap;rounded=0;" parent="1" vertex="1">
          <mxGeometry x="492.5" y="420" width="80" height="30" as="geometry" />
        </mxCell>
        <mxCell id="rznFFyfrfpz74ASjMZUM-27" value="VALOR:" style="text;html=1;align=center;verticalAlign=middle;whiteSpace=wrap;rounded=0;" parent="1" vertex="1">
          <mxGeometry x="482.5" y="490" width="75" height="30" as="geometry" />
        </mxCell>
        <mxCell id="rznFFyfrfpz74ASjMZUM-28" value="ATUALIZAR PEDIDO" style="rounded=1;whiteSpace=wrap;html=1;fillColor=#dae8fc;strokeColor=#6c8ebf;" parent="1" vertex="1">
          <mxGeometry x="525" y="770" width="140" height="40" as="geometry" />
        </mxCell>
        <mxCell id="rznFFyfrfpz74ASjMZUM-31" value="" style="rounded=1;whiteSpace=wrap;html=1;" parent="1" vertex="1">
          <mxGeometry x="492.5" y="660" width="220" height="30" as="geometry" />
        </mxCell>
        <mxCell id="rznFFyfrfpz74ASjMZUM-32" value="" style="rounded=1;whiteSpace=wrap;html=1;" parent="1" vertex="1">
          <mxGeometry x="492.5" y="595" width="220" height="30" as="geometry" />
        </mxCell>
        <mxCell id="rznFFyfrfpz74ASjMZUM-33" value="DESCONTO:" style="text;html=1;align=center;verticalAlign=middle;whiteSpace=wrap;rounded=0;" parent="1" vertex="1">
          <mxGeometry x="492.5" y="570" width="70" height="25" as="geometry" />
        </mxCell>
        <mxCell id="rznFFyfrfpz74ASjMZUM-34" value="PRAZO:" style="text;html=1;align=center;verticalAlign=middle;whiteSpace=wrap;rounded=0;" parent="1" vertex="1">
          <mxGeometry x="485" y="630" width="75" height="30" as="geometry" />
        </mxCell>
        <mxCell id="rznFFyfrfpz74ASjMZUM-35" value="" style="rounded=1;whiteSpace=wrap;html=1;" parent="1" vertex="1">
          <mxGeometry x="617.5" y="720" width="116" height="30" as="geometry" />
        </mxCell>
        <mxCell id="rznFFyfrfpz74ASjMZUM-36" value="TOTAL:" style="text;html=1;align=center;verticalAlign=middle;whiteSpace=wrap;rounded=0;" parent="1" vertex="1">
          <mxGeometry x="560" y="720" width="60" height="30" as="geometry" />
        </mxCell>
        <mxCell id="WNhTPhS3gDORj-w7lT_T-1" value="" style="rounded=1;whiteSpace=wrap;html=1;" parent="1" vertex="1">
          <mxGeometry x="475" y="100" width="230" height="130" as="geometry" />
        </mxCell>
        <mxCell id="WNhTPhS3gDORj-w7lT_T-2" value="SIM" style="rounded=1;whiteSpace=wrap;html=1;" parent="1" vertex="1">
          <mxGeometry x="515" y="170" width="60" height="30" as="geometry" />
        </mxCell>
        <mxCell id="WNhTPhS3gDORj-w7lT_T-3" value="NÃO" style="rounded=1;whiteSpace=wrap;html=1;" parent="1" vertex="1">
          <mxGeometry x="605" y="170" width="60" height="30" as="geometry" />
        </mxCell>
        <mxCell id="WNhTPhS3gDORj-w7lT_T-4" value="EXCLUIR PEDIDO?" style="text;html=1;align=center;verticalAlign=middle;whiteSpace=wrap;rounded=0;" parent="1" vertex="1">
          <mxGeometry x="525" y="120" width="130" height="30" as="geometry" />
        </mxCell>
        <mxCell id="XvgYV5YqysBo_l5KHe-P-1" value="&lt;span style=&quot;color: rgba(0, 0, 0, 0); font-family: monospace; font-size: 0px; text-align: start; text-wrap: nowrap;&quot;&gt;%3CmxGraphModel%3E%3Croot%3E%3CmxCell%20id%3D%220%22%2F%3E%3CmxCell%20id%3D%221%22%20parent%3D%220%22%2F%3E%3CmxCell%20id%3D%222%22%20value%3D%22%22%20style%3D%22image%3Bhtml%3D1%3Bimage%3Dimg%2Flib%2Fatlassian%2FBitbucket_Logo.svg%3B%22%20vertex%3D%221%22%20parent%3D%221%22%3E%3CmxGeometry%20x%3D%22350%22%20y%3D%22730%22%20width%3D%2230%22%20height%3D%2225%22%20as%3D%22geometry%22%2F%3E%3C%2FmxCell%3E%3CmxCell%20id%3D%223%22%20value%3D%22%22%20style%3D%22image%3Bhtml%3D1%3Bimage%3Dimg%2Flib%2Fatlassian%2FBamboo_Logo.svg%3Bdirection%3Deast%3B%22%20vertex%3D%221%22%20parent%3D%221%22%3E%3CmxGeometry%20x%3D%22390%22%20y%3D%22727.5%22%20width%3D%2230%22%20height%3D%2230%22%20as%3D%22geometry%22%2F%3E%3C%2FmxCell%3E%3C%2Froot%3E%3C%2FmxGraphModel%3E&lt;/span&gt;" style="rounded=1;whiteSpace=wrap;html=1;" parent="1" vertex="1">
          <mxGeometry x="810" y="275" width="270" height="580" as="geometry" />
        </mxCell>
        <mxCell id="XvgYV5YqysBo_l5KHe-P-2" value="Buscar Pedido" style="text;strokeColor=none;fillColor=none;html=1;fontSize=24;fontStyle=1;verticalAlign=middle;align=center;" parent="1" vertex="1">
          <mxGeometry x="895" y="320" width="100" height="30" as="geometry" />
        </mxCell>
        <mxCell id="XvgYV5YqysBo_l5KHe-P-3" value="" style="rounded=1;whiteSpace=wrap;html=1;" parent="1" vertex="1">
          <mxGeometry x="835" y="400" width="220" height="30" as="geometry" />
        </mxCell>
        <mxCell id="XvgYV5YqysBo_l5KHe-P-4" value="BUSCAR:" style="text;html=1;align=center;verticalAlign=middle;whiteSpace=wrap;rounded=0;" parent="1" vertex="1">
          <mxGeometry x="835" y="400" width="60" height="30" as="geometry" />
        </mxCell>
        <mxCell id="YMhkOfaubWDJnwqqc8HG-1" value="" style="image;html=1;image=img/lib/atlassian/Bitbucket_Logo.svg;" vertex="1" parent="1">
          <mxGeometry x="1030" y="405" width="20" height="20" as="geometry" />
        </mxCell>
        <mxCell id="dqhsHitObEtuEhhS1OwR-1" value="" style="rounded=1;whiteSpace=wrap;html=1;" vertex="1" parent="1">
          <mxGeometry x="-140" y="450" width="230" height="130" as="geometry" />
        </mxCell>
        <mxCell id="dqhsHitObEtuEhhS1OwR-2" value="CADASTRO FINALIZADO&lt;div&gt;COM SUCESSO&lt;/div&gt;" style="text;html=1;align=center;verticalAlign=middle;whiteSpace=wrap;rounded=0;" vertex="1" parent="1">
          <mxGeometry x="-100" y="480" width="150" height="70" as="geometry" />
        </mxCell>
        <mxCell id="jpIlya3iHAvDLTz220rX-1" value="" style="rounded=1;whiteSpace=wrap;html=1;" vertex="1" parent="1">
          <mxGeometry x="475" y="920" width="230" height="130" as="geometry" />
        </mxCell>
        <mxCell id="jpIlya3iHAvDLTz220rX-2" value="CADASTRO ATUALIZADO COM SUCESSO" style="text;html=1;align=center;verticalAlign=middle;whiteSpace=wrap;rounded=0;" vertex="1" parent="1">
          <mxGeometry x="525" y="955" width="130" height="60" as="geometry" />
        </mxCell>
        <mxCell id="ieLEyWmdQtdVWxqMAUfQ-1" value="BUSCA NÃO ENCONTRADA" style="rounded=1;whiteSpace=wrap;html=1;" vertex="1" parent="1">
          <mxGeometry x="1120" y="450" width="230" height="130" as="geometry" />
        </mxCell>
        <mxCell id="wagw4KUWRoyrhgxZD_8t-1" value="" style="image;html=1;image=img/lib/atlassian/Bitbucket_Logo.svg;" vertex="1" parent="1">
          <mxGeometry x="665" y="817.5" width="30" height="20" as="geometry" />
        </mxCell>
        <mxCell id="wagw4KUWRoyrhgxZD_8t-2" value="" style="image;html=1;image=img/lib/atlassian/Bamboo_Logo.svg;" vertex="1" parent="1">
          <mxGeometry x="695" y="817.5" width="30" height="20" as="geometry" />
        </mxCell>
        <mxCell id="KwN2gV3OnmzgfmHFuon9-1" value="" style="rounded=1;whiteSpace=wrap;html=1;" vertex="1" parent="1">
          <mxGeometry x="835" y="500" width="220" height="30" as="geometry" />
        </mxCell>
        <mxCell id="KwN2gV3OnmzgfmHFuon9-2" value="" style="rounded=1;whiteSpace=wrap;html=1;" vertex="1" parent="1">
          <mxGeometry x="835" y="550" width="220" height="30" as="geometry" />
        </mxCell>
        <mxCell id="KwN2gV3OnmzgfmHFuon9-3" value="" style="rounded=1;whiteSpace=wrap;html=1;" vertex="1" parent="1">
          <mxGeometry x="835" y="600" width="220" height="30" as="geometry" />
        </mxCell>
        <mxCell id="KwN2gV3OnmzgfmHFuon9-4" value="" style="rounded=1;whiteSpace=wrap;html=1;" vertex="1" parent="1">
          <mxGeometry x="835" y="650" width="220" height="30" as="geometry" />
        </mxCell>
        <mxCell id="KwN2gV3OnmzgfmHFuon9-5" value="" style="rounded=1;whiteSpace=wrap;html=1;" vertex="1" parent="1">
          <mxGeometry x="835" y="700" width="220" height="30" as="geometry" />
        </mxCell>
        <mxCell id="KwN2gV3OnmzgfmHFuon9-6" value="" style="rounded=1;whiteSpace=wrap;html=1;" vertex="1" parent="1">
          <mxGeometry x="835" y="750" width="220" height="30" as="geometry" />
        </mxCell>
        <mxCell id="F63qlFviSydXmbxmkPUe-3" style="edgeStyle=orthogonalEdgeStyle;rounded=0;orthogonalLoop=1;jettySize=auto;html=1;entryX=0;entryY=0.75;entryDx=0;entryDy=0;" edge="1" parent="1" source="F63qlFviSydXmbxmkPUe-1" target="F63qlFviSydXmbxmkPUe-2">
          <mxGeometry relative="1" as="geometry" />
        </mxCell>
        <mxCell id="F63qlFviSydXmbxmkPUe-1" value="" style="image;html=1;image=img/lib/atlassian/Bitbucket_Logo.svg;" vertex="1" parent="1">
          <mxGeometry x="1035" y="605" width="20" height="20" as="geometry" />
        </mxCell>
        <mxCell id="F63qlFviSydXmbxmkPUe-2" value="Lixo e atualizar em todas as caixas&amp;nbsp;" style="text;html=1;align=center;verticalAlign=middle;whiteSpace=wrap;rounded=0;" vertex="1" parent="1">
          <mxGeometry x="1140" y="680" width="60" height="30" as="geometry" />
        </mxCell>
        <mxCell id="h0Av1g1EdnTNLImYE0Jp-1" value="" style="image;html=1;image=img/lib/atlassian/Bamboo_Logo.svg;direction=east;" vertex="1" parent="1">
          <mxGeometry x="1010" y="603.75" width="20" height="22.5" as="geometry" />
        </mxCell>
        <mxCell id="5iPDuUEHYLRLyC5F-rJZ-1" value="+" style="rounded=1;whiteSpace=wrap;html=1;direction=south;" vertex="1" parent="1">
          <mxGeometry x="1020" y="800" width="30" height="30" as="geometry" />
        </mxCell>
        <mxCell id="Hvho1RofYwVn9F5Uredo-1" value="" style="rounded=1;whiteSpace=wrap;html=1;" vertex="1" parent="1">
          <mxGeometry x="147.5" y="495" width="220" height="30" as="geometry" />
        </mxCell>
        <mxCell id="Hvho1RofYwVn9F5Uredo-2" value="PRODUTO:" style="text;html=1;align=center;verticalAlign=middle;whiteSpace=wrap;rounded=0;" vertex="1" parent="1">
          <mxGeometry x="148.75" y="470" width="60" height="30" as="geometry" />
        </mxCell>
      </root>
    </mxGraphModel>
  </diagram>
  <diagram id="T_9RPqcWAjH2Ph0pimZp" name="Página-3">
    <mxGraphModel dx="2739" dy="1043" grid="1" gridSize="10" guides="1" tooltips="1" connect="1" arrows="1" fold="1" page="1" pageScale="1" pageWidth="827" pageHeight="1169" math="0" shadow="0">
      <root>
        <mxCell id="0" />
        <mxCell id="1" parent="0" />
        <mxCell id="jjlXJFwDT1z-txKEtjvN-2" value="" style="rounded=1;whiteSpace=wrap;html=1;" vertex="1" parent="1">
          <mxGeometry x="170" y="235" width="270" height="580" as="geometry" />
        </mxCell>
        <mxCell id="DulQrh6iSnX62Ko1CA_G-1" value="" style="rounded=1;whiteSpace=wrap;html=1;" parent="1" vertex="1">
          <mxGeometry x="-170" y="235" width="270" height="580" as="geometry" />
        </mxCell>
        <mxCell id="DulQrh6iSnX62Ko1CA_G-2" value="Cadastro Fornecedor" style="text;strokeColor=none;fillColor=none;html=1;fontSize=24;fontStyle=1;verticalAlign=middle;align=center;" parent="1" vertex="1">
          <mxGeometry x="250" y="255" width="100" height="40" as="geometry" />
        </mxCell>
        <mxCell id="DulQrh6iSnX62Ko1CA_G-3" value="" style="rounded=1;whiteSpace=wrap;html=1;" parent="1" vertex="1">
          <mxGeometry x="190" y="325" width="220" height="30" as="geometry" />
        </mxCell>
        <mxCell id="DulQrh6iSnX62Ko1CA_G-4" value="" style="rounded=1;whiteSpace=wrap;html=1;" parent="1" vertex="1">
          <mxGeometry x="190" y="395" width="220" height="30" as="geometry" />
        </mxCell>
        <mxCell id="DulQrh6iSnX62Ko1CA_G-6" value="NOME:" style="text;html=1;align=center;verticalAlign=middle;whiteSpace=wrap;rounded=0;" parent="1" vertex="1">
          <mxGeometry x="190" y="295" width="60" height="30" as="geometry" />
        </mxCell>
        <mxCell id="DulQrh6iSnX62Ko1CA_G-7" value="TELEFONE:" style="text;html=1;align=center;verticalAlign=middle;whiteSpace=wrap;rounded=0;" parent="1" vertex="1">
          <mxGeometry x="190" y="365" width="60" height="30" as="geometry" />
        </mxCell>
        <mxCell id="DulQrh6iSnX62Ko1CA_G-9" value="FINALIZAR CADASTRO" style="rounded=1;whiteSpace=wrap;html=1;fillColor=#dae8fc;strokeColor=#6c8ebf;" parent="1" vertex="1">
          <mxGeometry x="234" y="695" width="140" height="40" as="geometry" />
        </mxCell>
        <mxCell id="DulQrh6iSnX62Ko1CA_G-10" value="" style="image;html=1;image=img/lib/atlassian/Bitbucket_Logo.svg;" parent="1" vertex="1">
          <mxGeometry x="345" y="1320" width="30" height="20" as="geometry" />
        </mxCell>
        <mxCell id="DulQrh6iSnX62Ko1CA_G-11" value="" style="image;html=1;image=img/lib/atlassian/Bamboo_Logo.svg;" parent="1" vertex="1">
          <mxGeometry x="380" y="1320" width="30" height="20" as="geometry" />
        </mxCell>
        <mxCell id="v8uQu-3zUORkIjpccV5L-2" value="Buscar Fornecedor" style="text;strokeColor=none;fillColor=none;html=1;fontSize=24;fontStyle=1;verticalAlign=middle;align=center;" parent="1" vertex="1">
          <mxGeometry x="-85" y="275" width="100" height="30" as="geometry" />
        </mxCell>
        <mxCell id="v8uQu-3zUORkIjpccV5L-3" value="&lt;span style=&quot;color: rgba(0, 0, 0, 0); font-family: monospace; font-size: 0px; text-align: start; text-wrap: nowrap;&quot;&gt;%3CmxGraphModel%3E%3Croot%3E%3CmxCell%20id%3D%220%22%2F%3E%3CmxCell%20id%3D%221%22%20parent%3D%220%22%2F%3E%3CmxCell%20id%3D%222%22%20value%3D%22%22%20style%3D%22rounded%3D1%3BwhiteSpace%3Dwrap%3Bhtml%3D1%3B%22%20vertex%3D%221%22%20parent%3D%221%22%3E%3CmxGeometry%20x%3D%22-145%22%20y%3D%22365%22%20width%3D%22220%22%20height%3D%2230%22%20as%3D%22geometry%22%2F%3E%3C%2FmxCell%3E%3C%2Froot%3E%3C%2FmxGraphModel%3E&lt;/span&gt;" style="rounded=1;whiteSpace=wrap;html=1;" parent="1" vertex="1">
          <mxGeometry x="-145" y="335" width="220" height="30" as="geometry" />
        </mxCell>
        <mxCell id="v8uQu-3zUORkIjpccV5L-4" value="BUSCAR:" style="text;html=1;align=center;verticalAlign=middle;whiteSpace=wrap;rounded=0;" parent="1" vertex="1">
          <mxGeometry x="-145" y="335" width="60" height="30" as="geometry" />
        </mxCell>
        <mxCell id="ahq5J7V2fbRuykFfYKEB-1" value="" style="rounded=1;whiteSpace=wrap;html=1;" parent="1" vertex="1">
          <mxGeometry x="190" y="50" width="230" height="130" as="geometry" />
        </mxCell>
        <mxCell id="ahq5J7V2fbRuykFfYKEB-2" value="SIM" style="rounded=1;whiteSpace=wrap;html=1;" parent="1" vertex="1">
          <mxGeometry x="230" y="130" width="60" height="30" as="geometry" />
        </mxCell>
        <mxCell id="ahq5J7V2fbRuykFfYKEB-3" value="NÃO" style="rounded=1;whiteSpace=wrap;html=1;" parent="1" vertex="1">
          <mxGeometry x="320" y="130" width="60" height="30" as="geometry" />
        </mxCell>
        <mxCell id="ahq5J7V2fbRuykFfYKEB-4" value="EXCLUIR FORNECEDOR?" style="text;html=1;align=center;verticalAlign=middle;whiteSpace=wrap;rounded=0;" parent="1" vertex="1">
          <mxGeometry x="230" y="80" width="150" height="30" as="geometry" />
        </mxCell>
        <mxCell id="QGXwvulqao3rXOayL9PC-1" value="" style="image;html=1;image=img/lib/atlassian/Bitbucket_Logo.svg;" parent="1" vertex="1">
          <mxGeometry x="350" y="755" width="30" height="25" as="geometry" />
        </mxCell>
        <mxCell id="QGXwvulqao3rXOayL9PC-2" value="" style="image;html=1;image=img/lib/atlassian/Bamboo_Logo.svg;direction=east;" parent="1" vertex="1">
          <mxGeometry x="390" y="750" width="30" height="30" as="geometry" />
        </mxCell>
        <mxCell id="kcRjGsUdbSICrDa75THA-1" value="" style="rounded=1;whiteSpace=wrap;html=1;" parent="1" vertex="1">
          <mxGeometry x="189" y="610" width="220" height="32.5" as="geometry" />
        </mxCell>
        <mxCell id="UAl9D1Pjvff6qHfM3iNf-1" value="" style="image;html=1;image=img/lib/atlassian/Bitbucket_Logo.svg;" parent="1" vertex="1">
          <mxGeometry x="50" y="340" width="20" height="20" as="geometry" />
        </mxCell>
        <mxCell id="VmB-2lTo6iU5WXiPdjb7-1" value="MATÉRIA PRIMA" style="text;html=1;align=center;verticalAlign=middle;whiteSpace=wrap;rounded=0;" vertex="1" parent="1">
          <mxGeometry x="211.5" y="435" width="175" height="80" as="geometry" />
        </mxCell>
        <mxCell id="VmB-2lTo6iU5WXiPdjb7-3" value="" style="rounded=1;whiteSpace=wrap;html=1;" vertex="1" parent="1">
          <mxGeometry x="189" y="552.5" width="220" height="30" as="geometry" />
        </mxCell>
        <mxCell id="VmB-2lTo6iU5WXiPdjb7-6" value="PRODUTO:" style="text;html=1;align=center;verticalAlign=middle;whiteSpace=wrap;rounded=0;" vertex="1" parent="1">
          <mxGeometry x="200" y="552.5" width="60" height="30" as="geometry" />
        </mxCell>
        <mxCell id="VmB-2lTo6iU5WXiPdjb7-10" value="UNIDADE:" style="text;html=1;align=center;verticalAlign=middle;whiteSpace=wrap;rounded=0;" vertex="1" parent="1">
          <mxGeometry x="200" y="611.25" width="60" height="30" as="geometry" />
        </mxCell>
        <mxCell id="VmB-2lTo6iU5WXiPdjb7-11" value="" style="rounded=1;whiteSpace=wrap;html=1;" vertex="1" parent="1">
          <mxGeometry x="490" y="235" width="270" height="580" as="geometry" />
        </mxCell>
        <mxCell id="VmB-2lTo6iU5WXiPdjb7-12" value="Atualizar Fornecedor" style="text;strokeColor=none;fillColor=none;html=1;fontSize=24;fontStyle=1;verticalAlign=middle;align=center;" vertex="1" parent="1">
          <mxGeometry x="575" y="260" width="100" height="40" as="geometry" />
        </mxCell>
        <mxCell id="VmB-2lTo6iU5WXiPdjb7-13" value="" style="rounded=1;whiteSpace=wrap;html=1;" vertex="1" parent="1">
          <mxGeometry x="515" y="330" width="220" height="30" as="geometry" />
        </mxCell>
        <mxCell id="VmB-2lTo6iU5WXiPdjb7-14" value="" style="rounded=1;whiteSpace=wrap;html=1;" vertex="1" parent="1">
          <mxGeometry x="515" y="400" width="220" height="30" as="geometry" />
        </mxCell>
        <mxCell id="VmB-2lTo6iU5WXiPdjb7-15" value="NOME:" style="text;html=1;align=center;verticalAlign=middle;whiteSpace=wrap;rounded=0;" vertex="1" parent="1">
          <mxGeometry x="515" y="300" width="60" height="30" as="geometry" />
        </mxCell>
        <mxCell id="VmB-2lTo6iU5WXiPdjb7-16" value="TELEFONE:" style="text;html=1;align=center;verticalAlign=middle;whiteSpace=wrap;rounded=0;" vertex="1" parent="1">
          <mxGeometry x="515" y="370" width="60" height="30" as="geometry" />
        </mxCell>
        <mxCell id="VmB-2lTo6iU5WXiPdjb7-17" value="ATUALIZAR CADASTRO" style="rounded=1;whiteSpace=wrap;html=1;fillColor=#dae8fc;strokeColor=#6c8ebf;" vertex="1" parent="1">
          <mxGeometry x="555" y="715" width="140" height="40" as="geometry" />
        </mxCell>
        <mxCell id="VmB-2lTo6iU5WXiPdjb7-18" value="" style="image;html=1;image=img/lib/atlassian/Bitbucket_Logo.svg;" vertex="1" parent="1">
          <mxGeometry x="675" y="760" width="30" height="25" as="geometry" />
        </mxCell>
        <mxCell id="VmB-2lTo6iU5WXiPdjb7-19" value="" style="image;html=1;image=img/lib/atlassian/Bamboo_Logo.svg;direction=east;" vertex="1" parent="1">
          <mxGeometry x="715" y="755" width="30" height="30" as="geometry" />
        </mxCell>
        <mxCell id="VmB-2lTo6iU5WXiPdjb7-20" value="" style="rounded=1;whiteSpace=wrap;html=1;" vertex="1" parent="1">
          <mxGeometry x="515" y="665" width="220" height="25" as="geometry" />
        </mxCell>
        <mxCell id="VmB-2lTo6iU5WXiPdjb7-21" value="MATÉRIA PRIMA" style="text;html=1;align=center;verticalAlign=middle;whiteSpace=wrap;rounded=0;" vertex="1" parent="1">
          <mxGeometry x="570" y="465" width="110" height="50" as="geometry" />
        </mxCell>
        <mxCell id="VmB-2lTo6iU5WXiPdjb7-22" value="" style="rounded=1;whiteSpace=wrap;html=1;" vertex="1" parent="1">
          <mxGeometry x="515" y="545" width="220" height="25" as="geometry" />
        </mxCell>
        <mxCell id="VmB-2lTo6iU5WXiPdjb7-23" value="" style="rounded=1;whiteSpace=wrap;html=1;" vertex="1" parent="1">
          <mxGeometry x="515" y="585" width="220" height="25" as="geometry" />
        </mxCell>
        <mxCell id="VmB-2lTo6iU5WXiPdjb7-24" value="" style="rounded=1;whiteSpace=wrap;html=1;" vertex="1" parent="1">
          <mxGeometry x="515" y="625" width="220" height="25" as="geometry" />
        </mxCell>
        <mxCell id="VmB-2lTo6iU5WXiPdjb7-25" value="PRODUTO:" style="text;html=1;align=center;verticalAlign=middle;whiteSpace=wrap;rounded=0;" vertex="1" parent="1">
          <mxGeometry x="525" y="545" width="60" height="30" as="geometry" />
        </mxCell>
        <mxCell id="VmB-2lTo6iU5WXiPdjb7-26" value="LINHA:" style="text;html=1;align=center;verticalAlign=middle;whiteSpace=wrap;rounded=0;" vertex="1" parent="1">
          <mxGeometry x="515" y="582.5" width="60" height="30" as="geometry" />
        </mxCell>
        <mxCell id="VmB-2lTo6iU5WXiPdjb7-27" value="TECIDO:" style="text;html=1;align=center;verticalAlign=middle;whiteSpace=wrap;rounded=0;" vertex="1" parent="1">
          <mxGeometry x="515" y="622.5" width="60" height="30" as="geometry" />
        </mxCell>
        <mxCell id="VmB-2lTo6iU5WXiPdjb7-28" value="UNIDADE:" style="text;html=1;align=center;verticalAlign=middle;whiteSpace=wrap;rounded=0;" vertex="1" parent="1">
          <mxGeometry x="525" y="662.5" width="60" height="30" as="geometry" />
        </mxCell>
        <mxCell id="nO5CGOe8G2f_gbxKPYgh-1" value="" style="rounded=1;whiteSpace=wrap;html=1;" vertex="1" parent="1">
          <mxGeometry x="-450" y="400" width="230" height="130" as="geometry" />
        </mxCell>
        <mxCell id="nO5CGOe8G2f_gbxKPYgh-2" value="CADASTRO FINALIZADO&lt;div&gt;COM SUCESSO&lt;/div&gt;" style="text;html=1;align=center;verticalAlign=middle;whiteSpace=wrap;rounded=0;" vertex="1" parent="1">
          <mxGeometry x="-410" y="430" width="150" height="70" as="geometry" />
        </mxCell>
        <mxCell id="lMSc0eIS99u76nBLrm7t-1" value="" style="rounded=1;whiteSpace=wrap;html=1;" vertex="1" parent="1">
          <mxGeometry x="184" y="870" width="230" height="130" as="geometry" />
        </mxCell>
        <mxCell id="lMSc0eIS99u76nBLrm7t-2" value="CADASTRO ATUALIZADO COM SUCESSO" style="text;html=1;align=center;verticalAlign=middle;whiteSpace=wrap;rounded=0;" vertex="1" parent="1">
          <mxGeometry x="234" y="905" width="130" height="60" as="geometry" />
        </mxCell>
        <mxCell id="lVST1tkg-TZDFEfXhpqE-1" value="BUSCA NÃO ENCONTRADA" style="rounded=1;whiteSpace=wrap;html=1;" vertex="1" parent="1">
          <mxGeometry x="827" y="465" width="230" height="130" as="geometry" />
        </mxCell>
        <mxCell id="vs6oN4AyzxGlLTS6po5g-7" value="+" style="rounded=1;whiteSpace=wrap;html=1;direction=south;" vertex="1" parent="1">
          <mxGeometry x="380" y="495" width="30" height="30" as="geometry" />
        </mxCell>
        <mxCell id="vs6oN4AyzxGlLTS6po5g-10" value="+" style="rounded=1;whiteSpace=wrap;html=1;direction=south;" vertex="1" parent="1">
          <mxGeometry x="705" y="500" width="30" height="30" as="geometry" />
        </mxCell>
        <mxCell id="vs6oN4AyzxGlLTS6po5g-11" value="&lt;span style=&quot;color: rgba(0, 0, 0, 0); font-family: monospace; font-size: 0px; text-align: start; text-wrap: nowrap;&quot;&gt;%3CmxGraphModel%3E%3Croot%3E%3CmxCell%20id%3D%220%22%2F%3E%3CmxCell%20id%3D%221%22%20parent%3D%220%22%2F%3E%3CmxCell%20id%3D%222%22%20value%3D%22%22%20style%3D%22rounded%3D1%3BwhiteSpace%3Dwrap%3Bhtml%3D1%3B%22%20vertex%3D%221%22%20parent%3D%221%22%3E%3CmxGeometry%20x%3D%22-145%22%20y%3D%22365%22%20width%3D%22220%22%20height%3D%2230%22%20as%3D%22geometry%22%2F%3E%3C%2FmxCell%3E%3C%2Froot%3E%3C%2FmxGraphModel%3E&lt;/span&gt;" style="rounded=1;whiteSpace=wrap;html=1;" vertex="1" parent="1">
          <mxGeometry x="-145" y="420" width="220" height="30" as="geometry" />
        </mxCell>
        <mxCell id="vs6oN4AyzxGlLTS6po5g-12" value="&lt;span style=&quot;color: rgba(0, 0, 0, 0); font-family: monospace; font-size: 0px; text-align: start; text-wrap: nowrap;&quot;&gt;%3CmxGraphModel%3E%3Croot%3E%3CmxCell%20id%3D%220%22%2F%3E%3CmxCell%20id%3D%221%22%20parent%3D%220%22%2F%3E%3CmxCell%20id%3D%222%22%20value%3D%22%22%20style%3D%22rounded%3D1%3BwhiteSpace%3Dwrap%3Bhtml%3D1%3B%22%20vertex%3D%221%22%20parent%3D%221%22%3E%3CmxGeometry%20x%3D%22-145%22%20y%3D%22365%22%20width%3D%22220%22%20height%3D%2230%22%20as%3D%22geometry%22%2F%3E%3C%2FmxCell%3E%3C%2Froot%3E%3C%2FmxGraphModel%3E&lt;/span&gt;" style="rounded=1;whiteSpace=wrap;html=1;" vertex="1" parent="1">
          <mxGeometry x="-145" y="470" width="220" height="30" as="geometry" />
        </mxCell>
        <mxCell id="vs6oN4AyzxGlLTS6po5g-13" value="&lt;span style=&quot;color: rgba(0, 0, 0, 0); font-family: monospace; font-size: 0px; text-align: start; text-wrap: nowrap;&quot;&gt;%3CmxGraphModel%3E%3Croot%3E%3CmxCell%20id%3D%220%22%2F%3E%3CmxCell%20id%3D%221%22%20parent%3D%220%22%2F%3E%3CmxCell%20id%3D%222%22%20value%3D%22%22%20style%3D%22rounded%3D1%3BwhiteSpace%3Dwrap%3Bhtml%3D1%3B%22%20vertex%3D%221%22%20parent%3D%221%22%3E%3CmxGeometry%20x%3D%22-145%22%20y%3D%22365%22%20width%3D%22220%22%20height%3D%2230%22%20as%3D%22geometry%22%2F%3E%3C%2FmxCell%3E%3C%2Froot%3E%3C%2FmxGraphModel%3E&lt;/span&gt;" style="rounded=1;whiteSpace=wrap;html=1;" vertex="1" parent="1">
          <mxGeometry x="-145" y="525" width="220" height="30" as="geometry" />
        </mxCell>
        <mxCell id="vs6oN4AyzxGlLTS6po5g-14" value="&lt;span style=&quot;color: rgba(0, 0, 0, 0); font-family: monospace; font-size: 0px; text-align: start; text-wrap: nowrap;&quot;&gt;%3CmxGraphModel%3E%3Croot%3E%3CmxCell%20id%3D%220%22%2F%3E%3CmxCell%20id%3D%221%22%20parent%3D%220%22%2F%3E%3CmxCell%20id%3D%222%22%20value%3D%22%22%20style%3D%22rounded%3D1%3BwhiteSpace%3Dwrap%3Bhtml%3D1%3B%22%20vertex%3D%221%22%20parent%3D%221%22%3E%3CmxGeometry%20x%3D%22-145%22%20y%3D%22365%22%20width%3D%22220%22%20height%3D%2230%22%20as%3D%22geometry%22%2F%3E%3C%2FmxCell%3E%3C%2Froot%3E%3C%2FmxGraphModel%3E&lt;/span&gt;" style="rounded=1;whiteSpace=wrap;html=1;" vertex="1" parent="1">
          <mxGeometry x="-145" y="580" width="220" height="30" as="geometry" />
        </mxCell>
        <mxCell id="vs6oN4AyzxGlLTS6po5g-15" value="&lt;span style=&quot;color: rgba(0, 0, 0, 0); font-family: monospace; font-size: 0px; text-align: start; text-wrap: nowrap;&quot;&gt;%3CmxGraphModel%3E%3Croot%3E%3CmxCell%20id%3D%220%22%2F%3E%3CmxCell%20id%3D%221%22%20parent%3D%220%22%2F%3E%3CmxCell%20id%3D%222%22%20value%3D%22%22%20style%3D%22rounded%3D1%3BwhiteSpace%3Dwrap%3Bhtml%3D1%3B%22%20vertex%3D%221%22%20parent%3D%221%22%3E%3CmxGeometry%20x%3D%22-145%22%20y%3D%22365%22%20width%3D%22220%22%20height%3D%2230%22%20as%3D%22geometry%22%2F%3E%3C%2FmxCell%3E%3C%2Froot%3E%3C%2FmxGraphModel%3E&lt;/span&gt;" style="rounded=1;whiteSpace=wrap;html=1;" vertex="1" parent="1">
          <mxGeometry x="-145" y="635" width="220" height="30" as="geometry" />
        </mxCell>
        <mxCell id="vs6oN4AyzxGlLTS6po5g-16" value="&lt;span style=&quot;color: rgba(0, 0, 0, 0); font-family: monospace; font-size: 0px; text-align: start; text-wrap: nowrap;&quot;&gt;%3CmxGraphModel%3E%3Croot%3E%3CmxCell%20id%3D%220%22%2F%3E%3CmxCell%20id%3D%221%22%20parent%3D%220%22%2F%3E%3CmxCell%20id%3D%222%22%20value%3D%22%22%20style%3D%22rounded%3D1%3BwhiteSpace%3Dwrap%3Bhtml%3D1%3B%22%20vertex%3D%221%22%20parent%3D%221%22%3E%3CmxGeometry%20x%3D%22-145%22%20y%3D%22365%22%20width%3D%22220%22%20height%3D%2230%22%20as%3D%22geometry%22%2F%3E%3C%2FmxCell%3E%3C%2Froot%3E%3C%2FmxGraphModel%3E&lt;/span&gt;" style="rounded=1;whiteSpace=wrap;html=1;" vertex="1" parent="1">
          <mxGeometry x="-145" y="690" width="220" height="30" as="geometry" />
        </mxCell>
        <mxCell id="7Q0E2PU1TwtpWC6MTynv-3" value="" style="edgeStyle=orthogonalEdgeStyle;rounded=0;orthogonalLoop=1;jettySize=auto;html=1;" edge="1" parent="1" source="7Q0E2PU1TwtpWC6MTynv-1">
          <mxGeometry relative="1" as="geometry">
            <mxPoint x="130" y="800" as="targetPoint" />
            <Array as="points">
              <mxPoint x="130" y="705" />
              <mxPoint x="130" y="800" />
            </Array>
          </mxGeometry>
        </mxCell>
        <mxCell id="7Q0E2PU1TwtpWC6MTynv-1" value="" style="image;html=1;image=img/lib/atlassian/Bitbucket_Logo.svg;" vertex="1" parent="1">
          <mxGeometry x="50" y="695" width="20" height="20" as="geometry" />
        </mxCell>
        <mxCell id="7Q0E2PU1TwtpWC6MTynv-2" value="Lixo e atualizar em todas as caixa" style="text;html=1;align=center;verticalAlign=middle;whiteSpace=wrap;rounded=0;" vertex="1" parent="1">
          <mxGeometry x="105" y="815" width="60" height="30" as="geometry" />
        </mxCell>
        <mxCell id="e_6ON9XvSJYL4ActkPyx-1" value="" style="image;html=1;image=img/lib/atlassian/Bamboo_Logo.svg;direction=east;" vertex="1" parent="1">
          <mxGeometry x="30" y="695" width="20" height="22.5" as="geometry" />
        </mxCell>
        <mxCell id="Pg8O48MhatSIRIkI3gkR-2" value="+" style="rounded=1;whiteSpace=wrap;html=1;direction=south;" vertex="1" parent="1">
          <mxGeometry x="40" y="755" width="30" height="30" as="geometry" />
        </mxCell>
        <mxCell id="P-zWPh8y4S-NhYb3qWi--1" value="" style="image;html=1;image=img/lib/atlassian/Bitbucket_Logo.svg;" vertex="1" parent="1">
          <mxGeometry x="340" y="497.5" width="30" height="25" as="geometry" />
        </mxCell>
      </root>
    </mxGraphModel>
  </diagram>
  <diagram id="GNhI5MWNWulyqopF8CMt" name="Página-4">
    <mxGraphModel dx="2739" dy="1043" grid="1" gridSize="10" guides="1" tooltips="1" connect="1" arrows="1" fold="1" page="1" pageScale="1" pageWidth="827" pageHeight="1169" math="0" shadow="0">
      <root>
        <mxCell id="0" />
        <mxCell id="1" parent="0" />
        <mxCell id="SzUEQTiAq5xN6_CEzg-s-1" value="" style="rounded=1;whiteSpace=wrap;html=1;" vertex="1" parent="1">
          <mxGeometry x="-170" y="222.5" width="270" height="580" as="geometry" />
        </mxCell>
        <mxCell id="wMUXMAPugiK4558ddfQi-5" value="" style="rounded=1;whiteSpace=wrap;html=1;" parent="1" vertex="1">
          <mxGeometry x="482.5" y="225" width="277.5" height="575" as="geometry" />
        </mxCell>
        <mxCell id="R0Jp-YHOHKe_bN74u-MP-1" value="" style="rounded=1;whiteSpace=wrap;html=1;" parent="1" vertex="1">
          <mxGeometry x="165" y="220" width="270" height="580" as="geometry" />
        </mxCell>
        <mxCell id="R0Jp-YHOHKe_bN74u-MP-2" value="Cadastro Matéria&lt;div&gt;&amp;nbsp;Prima&lt;/div&gt;" style="text;strokeColor=none;fillColor=none;html=1;fontSize=24;fontStyle=1;verticalAlign=middle;align=center;" parent="1" vertex="1">
          <mxGeometry x="250" y="280" width="100" height="40" as="geometry" />
        </mxCell>
        <mxCell id="R0Jp-YHOHKe_bN74u-MP-3" value="" style="rounded=1;whiteSpace=wrap;html=1;" parent="1" vertex="1">
          <mxGeometry x="195" y="380" width="220" height="30" as="geometry" />
        </mxCell>
        <mxCell id="R0Jp-YHOHKe_bN74u-MP-5" value="" style="rounded=1;whiteSpace=wrap;html=1;" parent="1" vertex="1">
          <mxGeometry x="194.25" y="450" width="220" height="30" as="geometry" />
        </mxCell>
        <mxCell id="R0Jp-YHOHKe_bN74u-MP-6" value="PRODUTO:" style="text;html=1;align=center;verticalAlign=middle;whiteSpace=wrap;rounded=0;" parent="1" vertex="1">
          <mxGeometry x="200" y="350" width="60" height="30" as="geometry" />
        </mxCell>
        <mxCell id="R0Jp-YHOHKe_bN74u-MP-8" value="UNIDADE:" style="text;html=1;align=center;verticalAlign=middle;whiteSpace=wrap;rounded=0;" parent="1" vertex="1">
          <mxGeometry x="185.75" y="420" width="85" height="30" as="geometry" />
        </mxCell>
        <mxCell id="R0Jp-YHOHKe_bN74u-MP-9" value="FINALIZAR CADASTRO" style="rounded=1;whiteSpace=wrap;html=1;fillColor=#dae8fc;strokeColor=#6c8ebf;" parent="1" vertex="1">
          <mxGeometry x="230" y="650" width="140" height="40" as="geometry" />
        </mxCell>
        <mxCell id="R0Jp-YHOHKe_bN74u-MP-10" value="" style="image;html=1;image=img/lib/atlassian/Bitbucket_Logo.svg;" parent="1" vertex="1">
          <mxGeometry x="350" y="730" width="30" height="25" as="geometry" />
        </mxCell>
        <mxCell id="R0Jp-YHOHKe_bN74u-MP-11" value="" style="image;html=1;image=img/lib/atlassian/Bamboo_Logo.svg;direction=east;" parent="1" vertex="1">
          <mxGeometry x="390" y="727.5" width="30" height="30" as="geometry" />
        </mxCell>
        <mxCell id="sQeDC4bwfn_z_SchVANh-2" value="Buscar Matéria Prima" style="text;strokeColor=none;fillColor=none;html=1;fontSize=24;fontStyle=1;verticalAlign=middle;align=center;" parent="1" vertex="1">
          <mxGeometry x="-85" y="285" width="100" height="30" as="geometry" />
        </mxCell>
        <mxCell id="sQeDC4bwfn_z_SchVANh-3" value="" style="rounded=1;whiteSpace=wrap;html=1;" parent="1" vertex="1">
          <mxGeometry x="-145" y="365" width="220" height="30" as="geometry" />
        </mxCell>
        <mxCell id="sQeDC4bwfn_z_SchVANh-4" value="BUSCAR:" style="text;html=1;align=center;verticalAlign=middle;whiteSpace=wrap;rounded=0;" parent="1" vertex="1">
          <mxGeometry x="-145" y="365" width="60" height="30" as="geometry" />
        </mxCell>
        <mxCell id="aT7ItyA_byE6XgZQWQs_-2" value="Compra de Matéria&lt;div&gt;&amp;nbsp;Prima&lt;/div&gt;" style="text;strokeColor=none;fillColor=none;html=1;fontSize=24;fontStyle=1;verticalAlign=middle;align=center;" parent="1" vertex="1">
          <mxGeometry x="565" y="280" width="100" height="40" as="geometry" />
        </mxCell>
        <mxCell id="aT7ItyA_byE6XgZQWQs_-3" value="" style="rounded=1;whiteSpace=wrap;html=1;" parent="1" vertex="1">
          <mxGeometry x="511.25" y="390" width="220" height="30" as="geometry" />
        </mxCell>
        <mxCell id="aT7ItyA_byE6XgZQWQs_-4" value="" style="rounded=1;whiteSpace=wrap;html=1;" parent="1" vertex="1">
          <mxGeometry x="511.25" y="465" width="220" height="30" as="geometry" />
        </mxCell>
        <mxCell id="aT7ItyA_byE6XgZQWQs_-5" value="" style="rounded=1;whiteSpace=wrap;html=1;" parent="1" vertex="1">
          <mxGeometry x="511.25" y="540" width="220" height="30" as="geometry" />
        </mxCell>
        <mxCell id="aT7ItyA_byE6XgZQWQs_-6" value="FORNECEDOR:" style="text;html=1;align=center;verticalAlign=middle;whiteSpace=wrap;rounded=0;" parent="1" vertex="1">
          <mxGeometry x="527.5" y="360" width="60" height="30" as="geometry" />
        </mxCell>
        <mxCell id="aT7ItyA_byE6XgZQWQs_-7" value="MATÉRIA PRIMA" style="text;html=1;align=center;verticalAlign=middle;whiteSpace=wrap;rounded=0;" parent="1" vertex="1">
          <mxGeometry x="500" y="435" width="115" height="30" as="geometry" />
        </mxCell>
        <mxCell id="aT7ItyA_byE6XgZQWQs_-8" value="UNIDADE:" style="text;html=1;align=center;verticalAlign=middle;whiteSpace=wrap;rounded=0;" parent="1" vertex="1">
          <mxGeometry x="500" y="510" width="85" height="30" as="geometry" />
        </mxCell>
        <mxCell id="aT7ItyA_byE6XgZQWQs_-9" value="FINALIZAR" style="rounded=1;whiteSpace=wrap;html=1;fillColor=#dae8fc;strokeColor=#6c8ebf;" parent="1" vertex="1">
          <mxGeometry x="551.25" y="677.5" width="140" height="40" as="geometry" />
        </mxCell>
        <mxCell id="aqnxoGrOOMjcjbK5YOGJ-1" value="" style="rounded=1;whiteSpace=wrap;html=1;" parent="1" vertex="1">
          <mxGeometry x="190" y="50" width="230" height="130" as="geometry" />
        </mxCell>
        <mxCell id="aqnxoGrOOMjcjbK5YOGJ-2" value="SIM" style="rounded=1;whiteSpace=wrap;html=1;" parent="1" vertex="1">
          <mxGeometry x="230" y="130" width="60" height="30" as="geometry" />
        </mxCell>
        <mxCell id="aqnxoGrOOMjcjbK5YOGJ-3" value="NÃO" style="rounded=1;whiteSpace=wrap;html=1;" parent="1" vertex="1">
          <mxGeometry x="320" y="130" width="60" height="30" as="geometry" />
        </mxCell>
        <mxCell id="aqnxoGrOOMjcjbK5YOGJ-4" value="EXCLUIR MATÉRIA PRIMA?" style="text;html=1;align=center;verticalAlign=middle;whiteSpace=wrap;rounded=0;" parent="1" vertex="1">
          <mxGeometry x="230" y="80" width="150" height="30" as="geometry" />
        </mxCell>
        <mxCell id="0Clhu6oSZ5OJnSsZZHWo-1" value="" style="image;html=1;image=img/lib/atlassian/Bitbucket_Logo.svg;" vertex="1" parent="1">
          <mxGeometry x="45" y="370" width="20" height="20" as="geometry" />
        </mxCell>
        <mxCell id="MShYAw_pOrwCGcw4ubI4-1" value="" style="rounded=1;whiteSpace=wrap;html=1;" vertex="1" parent="1">
          <mxGeometry x="190" y="840" width="230" height="130" as="geometry" />
        </mxCell>
        <mxCell id="MShYAw_pOrwCGcw4ubI4-2" value="CADASTRO FINALIZADO&lt;div&gt;COM SUCESSO&lt;/div&gt;" style="text;html=1;align=center;verticalAlign=middle;whiteSpace=wrap;rounded=0;" vertex="1" parent="1">
          <mxGeometry x="230" y="870" width="150" height="70" as="geometry" />
        </mxCell>
        <mxCell id="LhZvcHXbGE46c5XPemSF-1" value="" style="rounded=1;whiteSpace=wrap;html=1;" vertex="1" parent="1">
          <mxGeometry x="520" y="835" width="230" height="130" as="geometry" />
        </mxCell>
        <mxCell id="LhZvcHXbGE46c5XPemSF-2" value="FINALIZADO COM SUCESSO" style="text;html=1;align=center;verticalAlign=middle;whiteSpace=wrap;rounded=0;" vertex="1" parent="1">
          <mxGeometry x="570" y="870" width="130" height="60" as="geometry" />
        </mxCell>
        <mxCell id="Ku4UonXwGbyUHurDRjW6-1" value="BUSCA NÃO ENCONTRADA" style="rounded=1;whiteSpace=wrap;html=1;" vertex="1" parent="1">
          <mxGeometry x="810" y="465" width="230" height="130" as="geometry" />
        </mxCell>
        <mxCell id="z_Bg-5zNHOsxSQGPl7Of-1" value="" style="rounded=1;whiteSpace=wrap;html=1;" vertex="1" parent="1">
          <mxGeometry x="-145" y="430" width="220" height="30" as="geometry" />
        </mxCell>
        <mxCell id="z_Bg-5zNHOsxSQGPl7Of-2" value="" style="rounded=1;whiteSpace=wrap;html=1;" vertex="1" parent="1">
          <mxGeometry x="-145" y="480" width="220" height="30" as="geometry" />
        </mxCell>
        <mxCell id="z_Bg-5zNHOsxSQGPl7Of-3" value="" style="rounded=1;whiteSpace=wrap;html=1;" vertex="1" parent="1">
          <mxGeometry x="-145" y="535" width="220" height="30" as="geometry" />
        </mxCell>
        <mxCell id="z_Bg-5zNHOsxSQGPl7Of-4" value="" style="rounded=1;whiteSpace=wrap;html=1;" vertex="1" parent="1">
          <mxGeometry x="-145" y="595" width="220" height="30" as="geometry" />
        </mxCell>
        <mxCell id="z_Bg-5zNHOsxSQGPl7Of-5" value="" style="rounded=1;whiteSpace=wrap;html=1;" vertex="1" parent="1">
          <mxGeometry x="-145" y="650" width="220" height="30" as="geometry" />
        </mxCell>
        <mxCell id="z_Bg-5zNHOsxSQGPl7Of-6" value="" style="rounded=1;whiteSpace=wrap;html=1;" vertex="1" parent="1">
          <mxGeometry x="-145" y="700" width="220" height="30" as="geometry" />
        </mxCell>
        <mxCell id="eqgjFnrg1_m6N0TaL8iE-3" value="" style="edgeStyle=orthogonalEdgeStyle;rounded=0;orthogonalLoop=1;jettySize=auto;html=1;" edge="1" parent="1" source="eqgjFnrg1_m6N0TaL8iE-1">
          <mxGeometry relative="1" as="geometry">
            <mxPoint x="130" y="820" as="targetPoint" />
            <Array as="points">
              <mxPoint x="130" y="665" />
            </Array>
          </mxGeometry>
        </mxCell>
        <mxCell id="eqgjFnrg1_m6N0TaL8iE-1" value="" style="image;html=1;image=img/lib/atlassian/Bitbucket_Logo.svg;" vertex="1" parent="1">
          <mxGeometry x="55" y="655" width="20" height="20" as="geometry" />
        </mxCell>
        <mxCell id="eqgjFnrg1_m6N0TaL8iE-2" value="Atualizar e lixo em todas as caixas" style="text;html=1;align=center;verticalAlign=middle;whiteSpace=wrap;rounded=0;" vertex="1" parent="1">
          <mxGeometry x="100" y="830" width="60" height="30" as="geometry" />
        </mxCell>
        <mxCell id="M8mtksaiy7AxBXB2MpQr-3" value="" style="image;html=1;image=img/lib/atlassian/Bamboo_Logo.svg;direction=east;" vertex="1" parent="1">
          <mxGeometry x="35" y="655" width="20" height="22.5" as="geometry" />
        </mxCell>
        <mxCell id="BiRef6C7-K5_lvHyO08P-1" value="+" style="rounded=1;whiteSpace=wrap;html=1;direction=south;" vertex="1" parent="1">
          <mxGeometry x="35" y="750" width="30" height="30" as="geometry" />
        </mxCell>
        <mxCell id="c2EPIRNC6545mHHS4Y5u-1" value="" style="rounded=1;whiteSpace=wrap;html=1;" vertex="1" parent="1">
          <mxGeometry x="511.25" y="610" width="220" height="30" as="geometry" />
        </mxCell>
        <mxCell id="c2EPIRNC6545mHHS4Y5u-2" value="PREÇO:" style="text;html=1;align=center;verticalAlign=middle;whiteSpace=wrap;rounded=0;" vertex="1" parent="1">
          <mxGeometry x="505" y="580" width="60" height="30" as="geometry" />
        </mxCell>
      </root>
    </mxGraphModel>
  </diagram>
</mxfile>
